<svg width="56" height="56" viewBox="0 0 56 56" fill="none" xmlns="http://www.w3.org/2000/svg">
<circle cx="28" cy="28" r="28" fill="black"/>
<path d="M39.0021 41H16C15.4696 41 14.9609 40.7893 14.5858 40.4142C14.2107 40.0391 14 39.5304 14 39V27C17.1913 28.6088 20.5431 29.8772 24 30.7842V31.9917C24 32.2569 24.1054 32.5113 24.2929 32.6988C24.4804 32.8863 24.7348 32.9917 25 32.9917H30C30.2652 32.9917 30.5196 32.8863 30.7071 32.6988C30.8946 32.5113 31 32.2569 31 31.9917V30.7759C34.4568 29.8687 37.8086 28.6003 41 26.9917V38.9917C41.0011 39.2549 40.9502 39.5157 40.8503 39.7591C40.7505 40.0026 40.6035 40.224 40.4179 40.4105C40.2323 40.5971 40.0117 40.7452 39.7687 40.8464C39.5258 40.9475 39.2652 40.9997 39.0021 41ZM29 29C29.2652 29 29.5196 29.1054 29.7071 29.2929C29.8946 29.4804 30 29.7348 30 30V31C30 31.2652 29.8946 31.5196 29.7071 31.7071C29.5196 31.8946 29.2652 32 29 32H26C25.7348 32 25.4804 31.8946 25.2929 31.7071C25.1054 31.5196 25 31.2652 25 31V30C25 29.7348 25.1054 29.4804 25.2929 29.2929C25.4804 29.1054 25.7348 29 26 29H29ZM31 29C31 28.7348 30.8946 28.4804 30.7071 28.2929C30.5196 28.1054 30.2652 28 30 28H25C24.7348 28 24.4804 28.1054 24.2929 28.2929C24.1054 28.4804 24 28.7348 24 29V29.8963C20.5368 28.9594 17.1842 27.6531 14 26V22C14 21.4696 14.2107 20.9609 14.5858 20.5858C14.9609 20.2107 15.4696 20 16 20H22V18C22 17.4696 22.2107 16.9609 22.5858 16.5858C22.9609 16.2107 23.4696 16 24 16H31C31.5304 16 32.0391 16.2107 32.4142 16.5858C32.7893 16.9609 33 17.4696 33 18V20H39.0021C39.5325 20 40.0412 20.2107 40.4163 20.5858C40.7914 20.9609 41.0021 21.4696 41.0021 22V26C37.8178 27.6529 34.4653 28.9592 31.0021 29.8963L31 29ZM31 19C31 18.7348 30.8946 18.4804 30.7071 18.2929C30.5196 18.1054 30.2652 18 30 18H25C24.7348 18 24.4804 18.1054 24.2929 18.2929C24.1054 18.4804 24 18.7348 24 19V20H31V19Z" fill="white"/>
</svg>
